<svg xmlns="http://www.w3.org/2000/svg" width="58" height="36" viewBox="0 0 58 36">
  <path id="Shipped_copy_2" data-name="Shipped copy 2" d="M841.622,1040.357c0-.021,0-.04,0-.059H821.157c0,.02,0,.039,0,.059a5.752,5.752,0,0,1-11.5,0c0-.021,0-.04,0-.059h-4.906a1.862,1.862,0,0,1-1.877-1.842v-1.96h-2.966a.891.891,0,1,1,0-1.782h8.718a.891.891,0,1,1,0,1.782h-3.936v1.96a.06.06,0,0,0,.06.059h5.22a5.787,5.787,0,0,1,10.871,0h18.842V1031.8a.908.908,0,0,1,1.816,0v6.713h.437a5.786,5.786,0,0,1,10.87,0h2.375v-3.921h-1.03a2.822,2.822,0,0,1-2.845-2.792v-1.9a.9.9,0,0,1,.908-.891h2.823a2.967,2.967,0,0,0-2.822-2.021H841.5V1028a.908.908,0,0,1-1.816,0v-16.159a.059.059,0,0,0-.06-.059H804.751a.059.059,0,0,0-.06.059V1028a.908.908,0,0,1-1.816,0v-16.159a1.861,1.861,0,0,1,1.877-1.841h34.873a1.861,1.861,0,0,1,1.876,1.841v1.961h6.842a3.783,3.783,0,0,1,3.814,3.742v.951a.9.9,0,0,1-.719.871l1.5,5.9A4.728,4.728,0,0,1,857,1029.9v9.506a.9.9,0,0,1-.908.891h-2.968c0,.02,0,.039,0,.059a5.753,5.753,0,0,1-11.5,0Zm1.817,0a3.936,3.936,0,1,0,3.935-3.862A3.9,3.9,0,0,0,843.439,1040.357Zm-31.967,0a3.936,3.936,0,1,0,3.936-3.862A3.9,3.9,0,0,0,811.471,1040.357Zm41.654-8.554a1.021,1.021,0,0,0,1.03,1.01h1.029v-2.02h-2.058Zm-11.624-6.594h9.553l-1.483-5.822H841.5Zm0-7.6h8.84v-.059a1.982,1.982,0,0,0-2-1.96H841.5Zm3.989,22.757a1.881,1.881,0,1,1,1.88,1.84A1.86,1.86,0,0,1,845.49,1040.36Zm-31.96,0a1.881,1.881,0,1,1,1.88,1.84A1.86,1.86,0,0,1,813.53,1040.36Zm9.626-3.866a.891.891,0,1,1,0-1.782h13.562a.891.891,0,1,1,0,1.782Zm-21.311-3.8a.891.891,0,1,1,0-1.782H813.47a.891.891,0,1,1,0,1.782Zm18.732-4.063-4.843-4.752a.879.879,0,0,1,0-1.26.92.92,0,0,1,1.284,0l4.2,4.122,8.076-7.925a.922.922,0,0,1,1.284,0,.88.88,0,0,1,0,1.261l-8.718,8.554a.918.918,0,0,1-1.284,0Z" transform="translate(-799 -1010)"/>
</svg>
