<svg xmlns="http://www.w3.org/2000/svg" width="58" height="38.001" viewBox="0 0 58 38.001">
  <path id="Credit_card" data-name="Credit card" d="M515.041,1048a6,6,0,0,1-6.041-5.938v-26.125a6,6,0,0,1,6.041-5.937h45.917a6,6,0,0,1,6.042,5.937v26.125a6,6,0,0,1-6.042,5.938Zm-3.624-5.938a3.6,3.6,0,0,0,3.624,3.563h45.917a3.6,3.6,0,0,0,3.625-3.563v-15.438H511.417Zm0-17.813h53.167V1019.5H511.417Zm53.167-7.124v-1.188a3.6,3.6,0,0,0-3.625-3.562H515.041a3.6,3.6,0,0,0-3.624,3.562v1.188Zm-10.876,23.75a3.6,3.6,0,0,1-3.624-3.563v-2.375a3.6,3.6,0,0,1,3.624-3.562h2.417a3.6,3.6,0,0,1,3.624,3.562v2.375a3.6,3.6,0,0,1-3.624,3.563Zm-1.208-5.937v2.375a1.2,1.2,0,0,0,1.208,1.187h2.417a1.2,1.2,0,0,0,1.208-1.187v-2.375a1.2,1.2,0,0,0-1.208-1.188h-2.417A1.2,1.2,0,0,0,552.5,1034.938Zm-35.042,5.937a1.188,1.188,0,1,1,0-2.375h14.5a1.188,1.188,0,1,1,0,2.375Zm0-4.75a1.188,1.188,0,1,1,0-2.375h14.5a1.188,1.188,0,1,1,0,2.375Z" transform="translate(-509 -1010)"/>
</svg>
