<svg xmlns="http://www.w3.org/2000/svg" width="54" height="40" viewBox="0 0 54 40">
  <path id="Mailbox" d="M1115.875,1048h-13.5a3.358,3.358,0,0,1-3.375-3.333v-13.333a10.076,10.076,0,0,1,10.125-10H1126v-12.222a1.119,1.119,0,0,1,1.125-1.112h11.25a1.119,1.119,0,0,1,1.125,1.112v6.666a1.118,1.118,0,0,1-1.125,1.111H1128.25v4.445h14.625a10.075,10.075,0,0,1,10.125,10v13.333a3.358,3.358,0,0,1-3.375,3.333Zm33.75-2.222a1.119,1.119,0,0,0,1.125-1.111v-13.333a7.835,7.835,0,0,0-7.875-7.778H1128.25v7.778a1.125,1.125,0,0,1-2.25,0v-7.778h-10.518a9.94,9.94,0,0,1,3.768,7.778v13.333a3.28,3.28,0,0,1-.193,1.111Zm-48.375-14.444v13.333a1.119,1.119,0,0,0,1.125,1.111h13.5a1.119,1.119,0,0,0,1.125-1.111v-13.333a7.876,7.876,0,0,0-15.75,0Zm27-16.667h9v-4.444h-9Z" transform="translate(-1099 -1008)"/>
</svg>
