<svg xmlns="http://www.w3.org/2000/svg" width="54.002" height="49.997" viewBox="0 0 54.002 49.997">
  <path id="Shopping_cart" data-name="Shopping cart" d="M245.553,1051.248A4.749,4.749,0,1,1,250.3,1056,4.755,4.755,0,0,1,245.553,1051.248Zm2.651,0a2.1,2.1,0,1,0,2.1-2.1A2.1,2.1,0,0,0,248.2,1051.248Zm-19.31,0a4.749,4.749,0,1,1,4.749,4.753A4.756,4.756,0,0,1,228.894,1051.248Zm2.652,0a2.1,2.1,0,1,0,2.1-2.1A2.1,2.1,0,0,0,231.547,1051.248Zm-4.916-6.9a2.661,2.661,0,0,1-2.6-2.118l-6.416-31.159-5.819-2.527a1.326,1.326,0,0,1,1.056-2.434l5.819,2.527a2.657,2.657,0,0,1,1.542,1.9l.834,4.051h41.3a2.652,2.652,0,0,1,2.6,3.188l-3.709,18.012a2.663,2.663,0,0,1-2.6,2.118H225.851l.781,3.79H258.4a1.327,1.327,0,1,1,0,2.653Zm-1.327-9.1h33.337l3.709-18.011H221.6Zm8.2-4.234a1.327,1.327,0,1,1,0-2.653h16.932a1.327,1.327,0,0,1,0,2.653Zm-1.035-6.889a1.327,1.327,0,0,1,0-2.653h19a1.327,1.327,0,1,1,0,2.653Z" transform="translate(-211 -1006.004)"/>
</svg>
